<svg version="1" xmlns="http://www.w3.org/2000/svg" width="456" height="456" viewBox="0 0 342.000000 342.000000"><path d="M173 25c0 .6-1 1.5-2.2 2-3.4 1.5-6.2 3.3-7.1 4.7-.4.7-1.5 1.3-2.2 1.3-.8 0-1.5.4-1.5.8 0 .8-2.6 2.3-5.5 3.3-.5.1-1.9 1.1-2.9 2.1-1 .9-2.3 1.5-2.8 1.2-.4-.3-.8 0-.8.6s-1.1 1.5-2.5 2-2.8 1.6-3.1 2.5c-.3.8-1 1.3-1.4 1-.4-.3-1.3.2-2 1s-1.8 1.5-2.5 1.5-1.5.7-1.9 1.5c-.3.8-1 1.5-1.6 1.5-.6 0-3.6 1.6-6.6 3.5-3 1.9-5.9 3.5-6.4 3.5-.6 0-1 .4-1 .9 0 1-3.8 3.4-7.2 4.7-1 .3-1.8 1-1.8 1.5s-.4.9-.9.9c-1.2 0-12.9 7.6-15.9 10.4-1.3 1.1-2.4 1.9-2.5 1.8-.4-.7-5.7 2.1-5.7 3 0 .4-.7.8-1.5.8-.9 0-1.8.7-2.1 1.5-.4.8-1.1 1.5-1.7 1.5-.6 0-1.8.6-2.6 1.4-.9.8-4 2.6-6.8 4.1-2.9 1.5-5.3 3.1-5.3 3.6s-.5.9-1 .9c-1.2 0-7.3 4.1-7.8 5.2-.2.5-.9.8-1.6.8-.7 0-2 .8-2.9 1.8-1.5 1.7-1.7 7.8-1.7 67.4v65.6l2.7.7c1.5.3 3 1 3.3 1.3.9 1.3 6.9 5.2 7.9 5.2.5 0 1.1.7 1.5 1.5.3.8 1.2 1.5 2.1 1.5.8 0 1.5.5 1.5 1.1 0 .6.6.9 1.4.6.8-.3 1.6-.3 1.8.1.5 1.1 6.6 5.2 7.7 5.2.5 0 1.1.7 1.5 1.5.3.8 1.2 1.5 2.1 1.5.8 0 1.5.4 1.5 1 0 .5 1.1 1.2 2.5 1.6 1.4.3 2.5 1 2.5 1.5s.4.9 1 .9c.9 0 7.2 3.9 9.7 6 .6.5 3 1.9 5.2 3.1 2.3 1.2 4.1 2.5 4.1 2.9 0 .4.8 1.1 1.8 1.4 3.2 1.2 7.2 3.7 7.2 4.5 0 .5.8 1.1 1.8 1.4.9.4 3.5 1.8 5.7 3.1 2.2 1.4 5 3 6.3 3.6 1.2.5 2.2 1.3 2.2 1.7 0 .8.9 1.4 6.6 4.3 1.6.8 3.5 2 4.2 2.7.7.7 2 1.3 2.8 1.3.8 0 1.4.5 1.4 1 0 .6 1.1 1.5 2.5 2s2.5 1.4 2.5 1.9 1.2 1.2 2.7 1.6c1.5.3 3 1 3.3 1.3.8 1.1 6.8 5.2 7.6 5.2.4 0 1.2.6 1.8 1.4.6.8 2 1.6 3.1 1.7 2.5.3 6.5-.9 6.5-2.1 0-.5 1.3-1.1 2.9-1.5 1.6-.3 3.2-1.3 3.5-2.1.3-.8 1.2-1.4 2.1-1.4.8 0 1.5-.5 1.5-1 0-.6.6-1 1.4-1 .7 0 1.9-.7 2.6-1.5.7-.9 1.5-1.3 1.8-1 .3.3 2-.6 3.8-2 1.8-1.4 3.5-2.5 3.8-2.5.3 0 2.6-1.3 5.2-3 2.6-1.6 5-2.7 5.5-2.5.4.3 1-.3 1.4-1.4.3-1.1 1.9-2.2 3.5-2.6 1.7-.4 3-1 3-1.4 0-.4 2.7-2 6-3.6 3.3-1.7 6-3.3 6-3.8 0-.4.7-.7 1.5-.7.9 0 1.8-.6 2.1-1.4.3-.8 1.9-1.8 3.5-2.1 1.6-.4 2.9-1 2.9-1.5 0-.4.8-1 1.8-1.4.9-.3 3.5-1.7 5.7-3 2.2-1.4 5.4-3.2 7-4 3.5-1.8 6.8-3.9 7.5-4.7.3-.3 1.2-.9 2-1.3s3.3-1.8 5.5-3.1 5.7-3.4 7.8-4.5c2-1.1 3.7-2.5 3.7-3 0-.6.3-.9.8-.8 1.3.2 4.6-1.5 6.4-3.3 1.6-1.6 1.6-1.7-.8-2.3-1.3-.4-2.4-1-2.4-1.5s-1.3-1.2-2.9-1.6c-1.6-.3-3.5-1.3-4.2-2.1-.6-.8-1.7-1.4-2.5-1.4-.7 0-1.9-.6-2.6-1.3-.7-.6-3.8-2.5-6.8-4-9.1-4.6-15.5-8.2-16-8.9-.3-.3-1.8-1-3.3-1.3-1.5-.4-3.1-1.3-3.5-1.9-.6-1.2-4.2-2.9-5.1-2.6-.2.1-.7-.2-1-.7-.3-.5-1.7-1.4-3.1-2.1-3.5-1.7-6.4-3.5-7.1-4.6-.4-.5-1.2-.5-1.8-.2-.6.4-1.1.2-1.1-.3 0-.6-.7-1.1-1.5-1.1s-1.5-.4-1.5-.8c0-.8-10.5-6.4-11.6-6.2-.4.1-1-.2-1.3-.7-.8-1.1-3.5-2.7-9.8-5.9-2.9-1.5-5.3-3.1-5.3-3.5 0-.4-1.3-1-3-1.4-1.6-.4-3-1.1-3-1.6s-.6-.9-1.4-.9c-.8 0-2.1-.6-2.8-1.3-.7-.7-4-2.6-7.3-4.2-3.3-1.5-7.4-3.8-9.1-5.1-1.7-1.3-3.6-2.4-4.2-2.4-.6 0-1.6-.8-2.1-1.8-1.1-2.1.3-4.2 2.6-4.2.7 0 1.3-.4 1.3-.9s.8-1.2 1.8-1.5c.9-.4 3.5-1.8 5.7-3.1s5-2.9 6.3-3.5c1.3-.5 3.8-2 5.5-3.3 4.7-3.3 6.9-4.6 10.2-6.1 1.7-.8 4.2-2.4 5.8-3.6 1.5-1.2 2.7-1.8 2.7-1.3 0 .4.4.3.8-.2.9-1.3 3.9-3.2 7.2-4.6 1.4-.6 3.5-2 4.8-3.1 1.2-1.2 2.2-1.7 2.2-1.2s.4.4.8-.1c.8-1.2 3.6-3 7.7-5.1 1.7-.8 5-2.8 7.5-4.4 2.5-1.7 6.3-3.9 8.5-5 4.3-2.1 7.7-4.2 8.5-5.1.3-.3 1.2-.9 2-1.2.8-.4 3.3-1.8 5.5-3.2 2.2-1.3 5.6-3.3 7.5-4.4 1.9-1.2 5.3-3.2 7.5-4.6 2.2-1.4 5.4-3.2 7-4.1 6.9-3.5 8.1-4.4 6.3-4.4-1 0-1.8-.4-1.8-.9s-1.5-1.4-3.2-2.2c-1.8-.7-4.6-2.2-6.3-3.3-4.4-3.1-6.7-4.5-9.5-5.8-1.4-.7-2.7-1.5-3-1.9-.9-1-13.1-7.9-14.1-7.9-.5 0-.9-.4-.9-.9s-1.6-1.5-3.5-2.2c-1.9-.7-3.5-1.6-3.5-2 0-.4-2-1.8-4.5-3s-4.5-2.6-4.5-3c0-.4-1.3-1-2.9-1.4-1.6-.3-3.2-1.2-3.4-1.9-.3-.8-1.8-1.6-3.3-2-1.4-.4-3.5-1.7-4.5-2.9s-1.8-1.8-1.9-1.3c0 .4-1.5-.2-3.2-1.6-1.8-1.3-4.4-2.9-5.8-3.6-3.6-1.7-6.4-3.5-7.2-4.7-.4-.6-.8-.6-.8-.2 0 .4-1.5-.2-3.2-1.5-4.2-3-6.5-4.3-10.6-6.4-1.9-1-3.6-2.3-3.9-3-.2-.7-1.1-1-1.9-.7-.8.3-1.4 0-1.4-.6s-.7-1.1-1.5-1.1c-.9 0-1.8-.7-2.1-1.5-.7-1.7-4.4-2.1-4.4-.5z"/></svg>